<svg xmlns="http://www.w3.org/2000/svg" width="1200" height="630" viewBox="0 0 1200 630">
  <defs>
    <radialGradient id="glow" cx="50%" cy="30%" r="65%">
      <stop offset="0%" stop-color="#d4a017" stop-opacity="0.22"/>
      <stop offset="100%" stop-color="#d4a017" stop-opacity="0"/>
    </radialGradient>
  </defs>
  <rect width="1200" height="630" fill="#0f4d24"/>
  <rect width="1200" height="630" fill="url(#glow)"/>
  <rect y="0" width="1200" height="10" fill="#111810"/>
  <rect y="10" width="1200" height="10" fill="#be0027"/>
  <rect y="20" width="1200" height="10" fill="#ffffff"/>
  <rect y="30" width="1200" height="10" fill="#1a7a3c"/>
  <rect y="40" width="1200" height="10" fill="#ffffff"/>
  <rect y="50" width="1200" height="10" fill="#be0027"/>
  <rect y="60" width="1200" height="10" fill="#111810"/>
  <rect y="560" width="1200" height="10" fill="#111810"/>
  <rect y="570" width="1200" height="10" fill="#be0027"/>
  <rect y="580" width="1200" height="10" fill="#ffffff"/>
  <rect y="590" width="1200" height="10" fill="#1a7a3c"/>
  <rect y="600" width="1200" height="10" fill="#ffffff"/>
  <rect y="610" width="1200" height="10" fill="#be0027"/>
  <rect y="620" width="1200" height="10" fill="#111810"/>
  <text x="600" y="250" font-family="Inter, system-ui, sans-serif" font-size="72" font-weight="800" fill="#ffffff" text-anchor="middle">Karibu Ujerumani</text>
  <text x="600" y="325" font-family="Inter, system-ui, sans-serif" font-size="30" fill="rgba(255,255,255,0.78)" text-anchor="middle">Community, events, housing leads, and trusted support</text>
  <rect x="358" y="390" width="484" height="58" rx="29" fill="#d4a017"/>
  <text x="600" y="426" font-family="Inter, system-ui, sans-serif" font-size="22" font-weight="800" fill="#111810" text-anchor="middle">For Kenyans living in Germany</text>
  <text x="600" y="520" font-family="Inter, system-ui, sans-serif" font-size="22" fill="rgba(255,255,255,0.5)" text-anchor="middle">www.karibujerumani.online</text>
</svg>
